<svg xmlns="http://www.w3.org/2000/svg" fill="none" viewBox="0 0 50 50" id="Adobe-Audio-Logo--Streamline-Logos-Block.svg" height="50" width="50"><desc>Adobe Audio Logo Streamline Icon: https://streamlinehq.com</desc><path fill="#000000" fill-rule="evenodd" d="M10.416666666666668 2.0833333333333335a8.333333333333334 8.333333333333334 0 0 0 -8.333333333333334 8.333333333333334v29.166666666666668a8.333333333333334 8.333333333333334 0 0 0 8.333333333333334 8.333333333333334h29.166666666666668a8.333333333333334 8.333333333333334 0 0 0 8.333333333333334 -8.333333333333334V10.416666666666668a8.333333333333334 8.333333333333334 0 0 0 -8.333333333333334 -8.333333333333334H10.416666666666668ZM7.316666666666667 34.31666666666667l6.654166666666667 -19.01666666666667v-1.3750000000000002h5.3125l7.3625 20.39166666666667H22.083333333333336l-1.7333333333333334 -4.764583333333333H13.14375l-1.6145833333333335 4.764583333333333H7.316666666666667Zm6.968750000000001 -8.81875H19.166666666666668L16.729166666666668 17.545833333333334l-2.441666666666667 7.952083333333334Zm22.895833333333336 -7.156250000000001h4.2875v15.633333333333333h-3.5562500000000004c-0.38958333333333334 0 -0.38958333333333334 -1.166666666666667 -0.38958333333333334 -1.166666666666667s-1.647916666666667 1.5083333333333333 -4.675000000000001 1.5083333333333333c-4.208333333333334 0 -5.097916666666667 -4.125 -5.016666666666667 -6.187500000000001V18.34375h4.2375v9.789583333333333c0 0.875 0.68125 2.2895833333333333 2.435416666666667 2.2895833333333333 1.4020833333333336 0 2.370833333333333 -0.65 2.679166666666667 -0.9750000000000001v-11.104166666666668Z" clip-rule="evenodd" stroke-width="1"></path></svg>