<svg xmlns="http://www.w3.org/2000/svg"  viewBox="0 0 100 100" width="50px" height="50px" baseProfile="basic"><path fill="#3a83c1" d="M72,36c-5.498,0-10.699,1.398-15.329,3.884C61.848,34.481,65,27.337,65,19.5 c0-3.506-0.638-6.87-1.798-10.005c-1.26,10.527-8.717,21.242-20.485,27.659c-12.158,6.63-25.681,6.907-35.282,1.761 C13.396,45.685,22.411,50,32.5,50c5.756,0,11.158-1.41,15.848-3.873C41.374,53.164,37,63.269,37,74.5 c0,6.21,1.345,12.071,3.719,17.266c-0.922-16.312,7.844-32.802,23.756-41.479c9.736-5.309,20.482-6.778,30.386-4.926 C88.727,39.533,80.741,36,72,36z"/><path fill="#181921" d="M40.718,92.766c-0.384,0-0.744-0.222-0.909-0.584C37.282,86.651,36,80.702,36,74.5 c0-9.415,3.098-18.524,8.616-25.633C40.768,50.27,36.651,51,32.5,51c-10.014,0-19.423-4.164-25.816-11.424 c-0.32-0.363-0.333-0.903-0.033-1.282c0.301-0.38,0.83-0.488,1.256-0.26c9.678,5.186,22.832,4.512,34.332-1.757 c11.054-6.028,18.706-16.335,19.97-26.9c0.055-0.459,0.417-0.82,0.876-0.875c0.455-0.046,0.895,0.213,1.055,0.646 C65.374,12.485,66,15.968,66,19.5c0,6.338-2.02,12.469-5.755,17.653C64.006,35.723,67.943,35,72,35 c8.646,0,17.01,3.422,23.55,9.636c0.321,0.305,0.403,0.786,0.202,1.18c-0.201,0.394-0.634,0.61-1.074,0.528 c-10.029-1.875-20.585-0.164-29.725,4.821c-15.044,8.203-24.165,24.118-23.236,40.544c0.027,0.48-0.292,0.912-0.758,1.027 C40.879,92.756,40.798,92.766,40.718,92.766z M48.347,45.126c0.309,0,0.61,0.143,0.805,0.405c0.293,0.397,0.253,0.948-0.094,1.299 C42.03,53.922,38,64.008,38,74.5c0,4.109,0.589,8.101,1.757,11.922c1.065-15.207,10.173-29.343,24.239-37.013 c8.502-4.636,18.18-6.561,27.604-5.539C85.887,39.418,79.04,37,72,37c-5.204,0-10.202,1.267-14.855,3.765 c-0.434,0.233-0.973,0.115-1.269-0.276c-0.298-0.392-0.267-0.941,0.074-1.297C61.141,33.773,64,26.78,64,19.5 c0-1.94-0.203-3.865-0.604-5.755c-2.586,9.688-10.023,18.738-20.2,24.287c-10.19,5.557-21.662,6.907-31.16,3.897 C17.698,46.469,24.912,49,32.5,49c5.382,0,10.701-1.3,15.383-3.759C48.03,45.164,48.189,45.126,48.347,45.126z"/><circle cx="34" cy="16" r="10" fill="#444445"/><path fill="#181921" d="M34,27c-6.065,0-11-4.935-11-11S27.935,5,34,5s11,4.935,11,11S40.065,27,34,27z M34,7 c-4.962,0-9,4.038-9,9s4.038,9,9,9s9-4.038,9-9S38.962,7,34,7z"/><path fill="#181921" d="M56.404,63.415c-0.116,0-0.232-0.04-0.327-0.121c-0.209-0.181-0.231-0.497-0.052-0.706 C61.482,56.268,68.48,52.032,76.828,50c0.273-0.065,0.539,0.1,0.604,0.368c0.065,0.268-0.099,0.539-0.367,0.604 c-8.141,1.982-14.965,6.11-20.281,12.27C56.684,63.356,56.544,63.415,56.404,63.415z"/><path fill="#181921" d="M94.319,50.394c-0.036,0-0.072-0.004-0.109-0.012c-2.707-0.607-7.536-0.98-12.981-0.208 c-0.27,0.036-0.527-0.152-0.565-0.425c-0.039-0.273,0.151-0.526,0.425-0.565c5.577-0.792,10.549-0.404,13.341,0.223 c0.27,0.061,0.438,0.328,0.379,0.597C94.755,50.235,94.549,50.394,94.319,50.394z"/><path fill="#181921" d="M25.83,37.543c-0.26,0-0.48-0.202-0.498-0.465c-0.02-0.276,0.188-0.515,0.463-0.534 c4.85-0.34,9.122-1.64,12.696-3.863c0.235-0.145,0.543-0.074,0.689,0.161c0.146,0.234,0.074,0.543-0.161,0.689 c-3.714,2.31-8.14,3.659-13.154,4.01C25.854,37.542,25.842,37.543,25.83,37.543z"/><g><path fill="#181921" d="M22.477,37.621c-0.003,0-0.007,0-0.011,0c-2.125-0.048-4.242-0.272-6.289-0.665 c-0.271-0.052-0.449-0.314-0.397-0.585c0.053-0.271,0.316-0.445,0.585-0.397c1.993,0.383,4.053,0.601,6.123,0.647 c0.276,0.006,0.495,0.235,0.489,0.511C22.97,37.404,22.748,37.621,22.477,37.621z"/></g><g><path fill="#181921" d="M13.678,36.358c-0.045,0-0.09-0.006-0.135-0.019c-2.557-0.713-4.589-1.654-5.577-2.582 c-0.201-0.189-0.211-0.505-0.022-0.707c0.188-0.202,0.505-0.211,0.707-0.022c0.861,0.809,2.79,1.686,5.161,2.348 c0.266,0.074,0.421,0.35,0.347,0.616C14.097,36.214,13.896,36.358,13.678,36.358z"/></g></svg>